mastitorrents.com
 
http://mastitorrents.com/forums/index.php
 
http://thepiratebay.se/user/HDvideos/0/7

The New World (2005) BRRip 480p Hindi Dubbed@Mastitorrents

Format : Matroska
File size : 877 MiB
Duration : 2h 9mn
Overall bit rate : 946 Kbps
Movie name : The New World 2005 BRRip 480p Hindi

Video
ID : 1
Format : AVC
Format/Info : Advanced Video Codec
Format profile : High@L4.0
Format settings, CABAC : Yes
Format settings, ReFrames : 3 frames
Muxing mode : Container profile=Unknown@4.0
Codec ID : V_MPEG4/ISO/AVC
Duration : 2h 9mn
Bit rate : 800 Kbps
Width : 912 pixels
Height : 398 pixels
Display aspect ratio : 2.25:1
Frame rate : 25.000 fps
Resolution : 24 bits
Colorimetry : 4:2:0
Scan type : Progressive
Bits/(Pixel*Frame) : 0.088
Stream size : 741 MiB (84%)
Language : Hindi

Audio
ID : 2
Format : MPEG Audio
Format version : Version 1
Format profile : Layer 3
Codec ID : A_MPEG/L3
Codec ID/Hint : MP3
Duration : 2h 9mn
Bit rate mode : Constant
Bit rate : 128 Kbps
Channel(s) : 2 channels
Sampling rate : 44.1 KHz
Resolution : 16 bits
Stream size : 119 MiB (14%)
Language : Hindi